<?xml version="1.0" encoding="UTF-8" standalone="no"?>
<svg width="2608px" height="588px" viewBox="0 0 2608 588" version="1.1" xmlns="http://www.w3.org/2000/svg" xmlns:xlink="http://www.w3.org/1999/xlink" xmlns:sketch="http://www.bohemiancoding.com/sketch/ns">
    <!-- Generator: Sketch 3.0.3 (7891) - http://www.bohemiancoding.com/sketch -->
    <title>Artboard 4</title>
    <desc>Created with Sketch.</desc>
    <defs></defs>
    <g id="Page-1" stroke="none" stroke-width="1" fill="none" fill-rule="evenodd" sketch:type="MSPage">
        <g id="Artboard-4" sketch:type="MSArtboardGroup" transform="translate(0.000000, 0.000000)">
            <text id="To-your-bus-,-turn-l" sketch:type="MSTextLayer" font-family="Lucida Sans" font-size="120" font-weight="normal" fill="#FFFFFF">
                <tspan x="362" y="500.6875">To your bus , turn left in  100m</tspan>
            </text>
            <path d="M1275.17055,158.518349 L1275.17055,115 L1097,204.5 L1275.17055,294 L1275.17055,250.481651 L1978,250.481651 L1978,158.518349 L1275.17055,158.518349 Z" id="Triangle-1" stroke="#FFFFFF" stroke-width="9" sketch:type="MSShapeGroup"></path>
            <rect id="Rectangle-2" fill="#FFFFFF" sketch:type="MSShapeGroup" x="1677" y="160" width="305" height="89"></rect>
            <g id="icon_97" sketch:type="MSLayerGroup" transform="translate(618.000000, 80.000000)">
                <g id="Group" sketch:type="MSShapeGroup">
                    <path d="M194.0475,36.9375 C191.3025,23.1175 182.4925,17.61 169.22,12.1125 C156.2475,6.67 125.05,0.1975 101.985,0 C78.8775,0.1975 47.68,6.67 34.615,12.115 C21.4375,17.6125 12.6275,23.12 9.9275,36.94 L0,113.21 L0,218.4375 L17.1,218.4375 L17.1,234.8475 C17.0325,255.025 46.4625,255.025 46.475,234.8475 L46.475,218.4375 L100.8175,218.4375 L100.9525,218.4375 L157.5,218.4375 L157.5,234.8475 C157.465,255.025 186.8975,255.025 186.875,234.8475 L186.875,218.4375 L203.975,218.4375 L203.975,113.21 L194.0475,36.9375 L194.0475,36.9375 Z M59.99,19.2875 L100.9525,19.2875 L143.9825,19.2875 C152.1975,19.265 152.1975,31.66 143.9825,31.7 L100.8175,31.7 L59.99,31.7 C51.735,31.66 51.735,19.265 59.99,19.2875 L59.99,19.2875 Z M31.7175,185.4775 C23.965,185.44 17.64,179.1225 17.65,171.2725 C17.64,163.525 23.965,157.205 31.7175,157.205 C39.5575,157.205 45.88,163.525 45.925,171.2725 C45.88,179.1225 39.5575,185.4425 31.7175,185.4775 L31.7175,185.4775 Z M100.9525,121.205 L26.065,121.205 C18.7525,121.275 17.215,116.0025 17.9325,110.725 L25.6525,55.2825 C26.715,48.6075 28.9925,44.175 37.7875,44.1125 L100.82,44.1125 L166.1925,44.1125 C174.9375,44.175 177.2225,48.605 178.3275,55.2825 L186.0525,110.725 C186.7175,116.005 185.1825,121.275 177.9125,121.205 L100.9525,121.205 L100.9525,121.205 Z M172.12,185.4775 C164.37,185.44 158.05,179.1225 158.05,171.2725 C158.05,163.525 164.37,157.205 172.12,157.205 C179.9625,157.205 186.2875,163.525 186.3225,171.2725 C186.2875,179.1225 179.9625,185.4425 172.12,185.4775 L172.12,185.4775 Z" id="Shape" fill="#FFFFFF"></path>
                    <path d="M57.4868403,-0.00994318182 C57.6790278,-0.00994318182 57.8811806,-0.00142045455 58.0762153,-5.90135579e-14 C58.27125,-0.00142045455 58.4719792,-0.00994318182 58.6655903,-0.00994318182 L57.4868403,-0.00994318182 L57.4868403,-0.00994318182 Z" id="Shape" fill="#000000"></path>
                </g>
            </g>
        </g>
    </g>
</svg>